<svg width="212" height="96" viewBox="0 0 212 96" fill="none" xmlns="http://www.w3.org/2000/svg">
<g filter="url(#filter0_d_647_7098)">
<mask id="path-1-outside-1_647_7098" maskUnits="userSpaceOnUse" x="0.485352" y="0" width="211" height="92" fill="black">
<rect fill="white" x="0.485352" width="211" height="92"/>
<path d="M24.5394 63.2655C24.6712 63.2142 24.7737 63.3094 24.781 63.4778C24.8909 67.7175 24.9421 69.841 25.052 74.0808C25.0739 74.9814 25.1838 75.5453 25.3668 75.7869C25.5719 75.9993 25.916 76.0359 26.392 75.8821C26.414 75.8821 26.4286 75.8674 26.4506 75.8601C26.641 75.7942 26.8533 75.948 26.824 76.2043C26.7069 77.1489 26.5311 77.8592 26.3114 78.3425C26.0625 78.899 25.5865 79.2724 24.8982 79.4921C24.0781 79.7484 23.4484 79.6898 23.009 79.3017C22.7161 79.0381 22.4745 78.6793 22.2914 78.218C22.2035 77.9837 21.8813 78.0569 21.7788 78.3351C21.7349 78.4596 21.6836 78.5841 21.6324 78.7159C21.464 79.1186 21.2516 79.4994 20.9953 79.8655C20.761 80.2243 20.4681 80.5465 20.1386 80.8394C19.8164 81.125 19.4429 81.3447 19.0036 81.5058C18.4837 81.6961 17.9711 81.7621 17.4659 81.7035C16.9606 81.6449 16.492 81.4252 16.06 81.0445C15.6426 80.6564 15.2984 80.0632 15.0202 79.2797C14.7566 78.4669 14.6101 77.3979 14.5735 76.0798C14.5515 75.1425 14.6028 74.1467 14.7346 73.0776C14.881 72.0012 15.1227 70.9614 15.4522 69.9582C15.7964 68.9477 16.2503 68.0397 16.8142 67.2342C17.3927 66.3995 18.1029 65.7917 18.945 65.4183C19.1427 65.3304 19.3478 65.2572 19.5821 65.2059C19.8091 65.1254 20.0287 65.1034 20.2484 65.14C20.4608 65.1547 20.6658 65.2425 20.8489 65.3963C20.966 65.4768 21.2662 65.2572 21.2589 65.0595C21.2589 64.957 21.2589 64.9057 21.2589 64.8032C21.2589 64.686 21.3248 64.5615 21.42 64.5249C22.6722 64.005 23.3019 63.7561 24.5687 63.2728L24.5394 63.2655ZM20.08 66.8828C19.6919 67.0439 19.3551 67.41 19.0768 67.9738C18.8132 68.5084 18.6009 69.1381 18.4398 69.8557C18.2933 70.544 18.1908 71.2909 18.1322 72.0964C18.0736 72.8799 18.0517 73.6048 18.0663 74.2931C18.0956 75.3915 18.1835 76.2263 18.3299 76.7974C18.4764 77.3466 18.6375 77.7347 18.8279 77.9544C19.0256 78.1521 19.2379 78.2399 19.4503 78.2253C19.6626 78.1887 19.8384 78.1447 19.9848 78.0862C20.1606 78.0203 20.3436 77.9031 20.5194 77.7347C20.7097 77.537 20.8782 77.2953 21.0173 77.0098C21.1711 76.7169 21.2955 76.3873 21.3834 76.0139C21.4713 75.6405 21.5079 75.2231 21.5006 74.7618C21.4273 71.9206 21.3907 70.5001 21.3175 67.6663C21.3175 67.6223 21.3102 67.5784 21.2882 67.5418C21.2589 67.4832 21.2223 67.41 21.1857 67.3294C21.1344 67.2049 21.0539 67.0951 20.9514 67.0072C20.8489 66.9194 20.7244 66.8681 20.5779 66.8462C20.4461 66.7949 20.2777 66.8095 20.0873 66.8901L20.08 66.8828Z"/>
<path d="M11.6958 83.4462C11.6958 83.578 11.7763 83.6585 11.8788 83.6439C12.4793 83.5634 13.0944 83.5926 13.7241 83.7171C14.4344 83.8489 15.1666 83.9954 15.9135 84.1638C16.6604 84.3249 17.4219 84.4421 18.1908 84.4933C18.9743 84.5665 19.7578 84.4713 20.534 84.2077C20.8415 84.1052 21.1564 83.9588 21.4786 83.7611C21.7349 83.6293 21.9912 83.4535 22.2475 83.2412C22.35 83.1533 22.4745 83.1972 22.4818 83.3437C22.4818 83.4608 22.4818 83.5121 22.4891 83.6293C22.5037 84.1125 22.4598 84.6324 22.3573 85.1743C22.2548 85.7381 22.101 86.2654 21.8813 86.756C21.6836 87.2466 21.5079 87.5688 21.0759 88.0594C20.6438 88.55 19.1281 89.1504 18.2787 88.8795C17.4293 88.6086 17.173 88.4694 16.5799 88.1619C15.9867 87.8543 15.379 87.5175 14.7566 87.1367C14.1341 86.7779 13.4971 86.485 12.8527 86.2434C12.201 86.0017 11.542 85.8626 10.8756 85.8114C10.202 85.7674 9.53563 85.8992 8.86196 86.2068C8.75212 86.258 8.69354 86.2873 8.5837 86.3386C8.44458 86.4045 8.32009 86.3386 8.32009 86.1628C8.12239 78.3644 8.01987 74.4688 7.82216 66.6704C7.82216 66.4654 7.64642 66.4361 7.5073 66.6264C6.92882 67.4246 6.47483 68.296 6.15264 69.2406C5.79384 70.3097 5.62542 71.4373 5.65471 72.6236C5.66935 73.1435 5.70597 73.5755 5.77919 73.9196C5.86706 74.2418 5.94761 74.4981 6.02816 74.7031C6.12335 74.9009 6.22586 75.0546 6.32106 75.1791C6.40892 75.267 6.45286 75.3182 6.54073 75.4061C5.6181 75.9333 4.88585 76.0944 4.34398 75.8894C3.80212 75.6844 3.51654 75.018 3.48725 73.8904C3.46529 72.9311 3.6337 71.906 3.9925 70.8296C4.35131 69.7458 4.83459 68.6914 5.44236 67.6736C6.06477 66.6264 6.78237 65.6599 7.58785 64.8031C8.40796 63.9098 9.26469 63.1922 10.1507 62.665C10.3191 62.5625 10.4875 62.4746 10.6413 62.4014C10.7438 62.3428 10.839 62.2915 10.9342 62.2403C11.0514 62.1817 11.1393 62.2549 11.1393 62.4014C11.3223 69.4163 11.5127 76.4239 11.6958 83.4389V83.4462Z"/>
<path d="M203.306 59.6936C203.123 59.5563 203.031 59.3 203.068 59.0895C203.104 58.8698 203.132 58.6593 203.132 58.4671C203.132 58.4396 203.132 58.4122 203.132 58.3847C203.177 58.1009 203.196 57.7165 203.205 57.2406C203.223 55.1903 202.967 53.6434 202.427 52.5816C201.933 51.5382 201.283 50.8883 200.459 50.6595C199.544 50.4032 198.738 50.7327 198.033 51.648C197.374 52.5267 196.798 53.7624 196.303 55.355C195.855 56.9019 195.498 58.6959 195.233 60.7279C195.013 62.769 194.876 64.7827 194.839 66.7598C194.793 69.2677 194.894 71.3363 195.15 72.9564C195.452 74.5308 195.882 75.7756 196.432 76.7092C197.036 77.6428 197.777 78.311 198.674 78.7229C199.571 79.0799 200.615 79.2812 201.795 79.3453C202.125 79.3636 202.528 79.3545 203.004 79.3362C203.525 79.2629 204.074 79.1165 204.642 78.906C205.255 78.6405 205.896 78.2652 206.564 77.7801C206.93 77.4872 207.306 77.1303 207.681 76.7184C207.983 76.3889 208.56 76.6634 208.523 77.1211C208.431 78.1005 208.267 78.9975 208.047 79.8304C207.763 81.0661 207.241 82.1279 206.473 83.034C205.704 83.9402 204.651 84.6449 203.315 85.1301C202.024 85.6243 200.367 85.8806 198.363 85.8806C196.358 85.8806 194.491 85.5694 192.789 84.9104C191.086 84.1965 189.603 83.0889 188.349 81.5512C187.141 79.9677 186.217 77.9083 185.567 75.382C184.963 72.8558 184.706 69.8169 184.789 66.293C184.844 63.9132 185.1 61.3503 185.549 58.6318C186.043 55.8676 186.857 53.4054 187.983 51.2819C189.109 49.1584 190.601 47.5657 192.432 46.5131C194.308 45.4788 196.688 45.4147 199.562 46.2934C201.338 46.8335 202.775 47.584 203.901 48.4902C205.072 49.4147 205.987 50.394 206.665 51.4283C207.342 52.4169 207.809 53.4237 208.084 54.4672C208.349 55.4557 208.486 56.3802 208.486 57.2406C208.486 58.4854 208.239 59.4465 207.736 60.1512C207.278 60.8652 206.637 61.1398 205.814 60.9567C205.447 60.8743 205.008 60.7096 204.505 60.4533C204.102 60.2519 203.708 59.9956 203.306 59.6936Z"/>
<path d="M176.698 40.7924C176.954 40.8473 177.164 41.1585 177.155 41.4789C176.89 51.3551 176.633 61.2313 176.368 71.1075C176.304 73.3592 176.505 74.9701 176.954 75.9403C177.402 76.8465 178.254 77.3225 179.498 77.3774C181.311 77.4598 182.638 76.7641 183.48 75.3271C184.304 74.009 184.844 72.453 185.109 70.6498C185.155 70.3661 185.356 70.1739 185.594 70.1922C186.409 70.2654 186.812 70.302 187.617 70.3753C187.901 70.4027 188.111 70.7139 188.066 71.0434C187.608 74.1189 186.903 76.5994 185.97 78.5215C184.972 80.5077 183.855 82.0729 182.638 83.1988C181.421 84.2697 180.176 84.9928 178.931 85.3406C177.677 85.6884 176.551 85.8623 175.544 85.8623C172.963 85.8623 171.023 85.1118 169.723 83.574C168.789 82.4299 168.094 80.9288 167.627 79.0799C167.48 78.5032 166.776 78.4208 166.556 78.9609C166.098 80.0592 165.586 81.002 165.036 81.7617C164.194 82.8692 163.334 83.7296 162.455 84.3521C161.577 84.9745 160.707 85.3863 159.838 85.5694C158.968 85.7616 158.181 85.8531 157.467 85.8531C154.071 85.8531 151.645 84.4985 150.172 81.7526C148.744 79.0066 148.076 75.2813 148.176 70.6407C148.414 59.3732 148.652 48.1057 148.881 36.8383C148.881 36.4813 149.11 36.2158 149.376 36.2433C153.192 36.701 155.096 36.9573 158.895 37.5339C159.16 37.5705 159.371 37.8909 159.362 38.2387C159.096 48.838 158.84 59.4281 158.574 70.0274C158.51 72.4439 158.712 74.1738 159.169 75.1989C159.673 76.1692 160.405 76.6634 161.357 76.6909C162.648 76.7275 163.746 75.9861 164.652 74.4575C165.558 72.9381 166.034 71.016 166.098 68.6636C166.355 58.9339 166.611 49.195 166.867 39.4652C166.867 39.1265 167.096 38.8886 167.361 38.9343C171.114 39.6117 172.991 39.9778 176.698 40.7741V40.7924Z"/>
<path d="M118.182 16.2529C118.182 15.9143 118.365 15.6305 118.612 15.5939C122.53 14.9715 124.497 14.6969 128.415 14.2393C128.717 14.2027 128.973 14.5413 128.973 14.944C128.882 23.2551 128.845 27.4106 128.754 35.7216C128.754 36.2708 129.193 36.6095 129.532 36.3349C130.52 35.5202 131.344 34.9985 132.012 34.7788C132.854 34.431 133.696 34.2846 134.529 34.3486C136.296 34.4768 137.888 35.145 139.289 36.3349C140.744 37.4607 141.962 39.0716 142.95 41.1494C143.984 43.2363 144.772 45.7809 145.293 48.7922C145.824 51.7395 146.044 55.0804 145.971 58.8332C145.916 61.7256 145.632 64.7736 145.138 67.9863C144.643 71.135 143.765 74.0457 142.52 76.7367C141.321 79.3636 139.673 81.542 137.586 83.272C135.545 85.0019 132.928 85.8806 129.724 85.8806C125.66 85.8806 122.658 84.4527 120.708 81.5878C118.804 78.7229 117.861 74.8603 117.88 70.0183C117.98 52.0965 118.072 34.1839 118.173 16.2621L118.182 16.2529ZM138.474 59.3275C138.566 53.918 138.072 49.6435 136.991 46.4948C135.921 43.3461 134.419 41.6986 132.506 41.5887C131.921 41.5521 131.234 41.6894 130.438 41.9823C129.733 42.1929 129.184 42.5407 128.79 43.0349C128.699 43.1448 128.662 43.3004 128.653 43.4743C128.561 52.3253 128.47 61.1764 128.369 70.0275C128.351 72.1967 128.671 73.7528 129.33 74.7138C129.999 75.6017 130.85 76.0502 131.911 76.0685C133.165 76.0868 134.2 75.5925 135.033 74.604C135.866 73.5422 136.516 72.215 136.973 70.6224C137.477 68.9657 137.852 67.1717 138.072 65.2404C138.3 63.245 138.429 61.2771 138.456 59.3366L138.474 59.3275Z"/>
<path d="M109.138 34.0191C109.413 34.0191 109.633 34.3212 109.633 34.6964C109.642 46.0829 109.66 57.4694 109.669 68.8558C109.669 71.7208 109.944 73.6338 110.466 74.5948C111.042 75.4827 112.031 75.922 113.422 75.9312C114.813 75.9312 115.976 75.08 116.891 73.3775C117.779 71.8123 118.328 69.881 118.539 67.5652C118.566 67.2174 118.777 66.9428 119.033 66.9428C119.857 66.9428 120.269 66.952 121.083 66.9611C121.376 66.9611 121.596 67.3273 121.55 67.73C121.129 71.5285 120.461 74.604 119.546 76.9655C118.575 79.4185 117.486 81.3224 116.278 82.6862C115.079 83.9859 113.852 84.8371 112.608 85.249C111.363 85.6609 110.264 85.8623 109.312 85.8623C106.777 85.8623 104.837 85.0385 103.491 83.4093C102.466 82.0729 101.679 80.3613 101.12 78.2652C100.965 77.6703 100.333 77.5879 100.123 78.1462C99.8938 78.7503 99.6467 79.3453 99.3721 79.9402C98.8504 81.0295 98.2097 82.018 97.45 82.9058C96.736 83.7937 95.8848 84.5076 94.8871 85.0477C93.9352 85.5877 92.8185 85.8623 91.5279 85.8623C89.9993 85.8623 88.4891 85.4596 86.988 84.6541C85.496 83.8486 84.1047 82.558 82.8325 80.764C81.6059 78.9792 80.5808 76.636 79.757 73.7436C78.979 70.7871 78.5488 67.1625 78.4664 62.8789C78.4115 59.84 78.5946 56.6914 79.0156 53.4237C79.4916 50.1469 80.233 47.1081 81.2581 44.298C82.329 41.488 83.7386 39.1357 85.4777 37.2593C87.2626 35.3097 89.441 34.2388 92.0039 34.0832C92.5988 34.0466 93.2395 34.0832 93.926 34.1747C94.6125 34.2022 95.2807 34.4127 95.9306 34.788C96.5713 35.0992 97.1662 35.6118 97.7154 36.3348C98.0541 36.7376 98.9694 36.3898 98.9694 35.7673C98.9694 35.4287 98.9694 35.2639 98.9694 34.9253C98.9694 34.55 99.1799 34.2388 99.4545 34.2296C103.326 34.0832 105.258 34.0466 109.138 34.0191ZM99.0426 44.1333C99.0426 44.0784 99.0426 44.0235 99.0243 43.9685C98.9694 43.7122 98.8779 43.401 98.7406 43.0349C98.5941 42.5681 98.3653 42.1288 98.0632 41.7352C97.7612 41.2684 97.395 40.9114 96.9465 40.6551C96.498 40.3348 95.9855 40.1883 95.3905 40.2066C94.2098 40.2615 93.1846 41.0212 92.3242 42.4857C91.5096 43.877 90.8414 45.6344 90.3289 47.7488C89.862 49.7991 89.5325 52.069 89.322 54.5678C89.1115 57.0026 89.02 59.3274 89.0474 61.5425C89.0932 65.1122 89.3312 67.8948 89.7431 69.9084C90.1549 71.8489 90.6309 73.2951 91.1709 74.2287C91.7567 75.0982 92.37 75.6291 92.9924 75.8214C93.6148 75.9495 94.1457 76.0136 94.585 76.0044C95.1159 76.0044 95.6377 75.8214 96.1685 75.4827C96.7452 75.0708 97.2394 74.485 97.6696 73.7344C98.1456 72.9839 98.5209 72.0594 98.8046 70.9702C99.0884 69.8078 99.2165 68.4806 99.2074 66.9886C99.1341 57.8446 99.1067 53.2681 99.0334 44.115L99.0426 44.1333Z"/>
<path d="M63.7391 37.5705C64.0045 37.5339 64.2242 37.781 64.2333 38.1288C64.2699 39.5567 64.2883 40.2615 64.3249 41.6894C64.3432 42.2844 64.9107 42.4857 65.2127 42.0189C66.009 40.7649 66.8786 39.6025 67.8122 38.5316C69.0936 37.003 70.5032 36.1335 72.0684 35.9321C72.9929 35.8131 73.8258 35.9779 74.5672 36.4172C75.3544 36.8474 76.0317 37.4698 76.5809 38.2661C77.185 39.0625 77.6426 39.9778 77.9538 41.0029C78.3108 41.964 78.503 42.9708 78.5213 44.0326C78.5488 45.488 78.2376 46.8701 77.5786 48.179C76.9653 49.4146 75.9127 50.092 74.4116 50.2201C73.2949 50.3116 72.5169 50.0553 72.0684 49.4421C71.6199 48.8288 71.2629 48.179 71.0066 47.4925C70.7503 46.7419 70.4666 46.0554 70.1554 45.433C69.8991 44.8106 69.4323 44.536 68.755 44.6184C68.0319 44.7008 67.3088 45.1767 66.604 46.028C65.9816 46.7694 65.3226 47.6847 64.6269 48.7648C64.5445 48.8929 64.4988 49.0485 64.5079 49.2133C64.8008 61.0299 65.0846 72.8466 65.3775 84.6541C65.3775 85.0019 65.1761 85.2857 64.9198 85.2857C61.167 85.2857 59.2907 85.2948 55.547 85.304C55.2816 85.304 55.0619 85.0294 55.0528 84.6907C54.6592 69.7345 54.2564 54.7875 53.8629 39.8313C53.8629 39.4927 54.0551 39.1815 54.3205 39.1357C58.0733 38.4492 59.9588 38.1289 63.7482 37.5522L63.7391 37.5705Z"/>
<path d="M55.5196 16.5641C53.9819 16.9669 52.2611 17.2506 50.3481 17.4337C48.609 17.5527 46.037 17.9096 44.0599 18.0927C43.767 18.1202 43.5016 18.4863 43.5107 18.8616C44.0874 40.829 44.6732 62.7965 45.2498 84.7639C45.2498 85.0843 45.0484 85.3497 44.7922 85.3497C41.0119 85.3589 39.1264 85.368 35.3462 85.3772C35.0807 85.3772 34.861 85.1301 34.861 84.828C34.3759 63.4647 33.8817 42.1013 33.3965 20.738C33.3965 20.4359 33.1769 20.2711 32.9297 20.3718C32.1151 20.7105 31.7032 20.8844 30.8886 21.2322C28.8474 22.1018 27.1724 23.1635 25.8361 24.3626C24.4997 25.5067 23.4471 26.7882 22.6599 28.1794C21.8728 29.5249 21.3327 31.0077 21.0398 32.6187C20.7469 34.2296 20.6096 35.9413 20.628 37.7627C20.6463 39.4378 20.7469 40.7375 20.9392 41.6894C21.1771 42.623 21.4334 43.3736 21.708 43.9502C21.9826 44.472 22.2664 44.8655 22.541 45.1401C22.5593 45.1584 22.5776 45.1676 22.5959 45.1859C22.8705 45.4056 22.6782 45.9456 22.2938 46.0463C19.8774 46.6596 17.9552 46.5772 16.5182 45.8358C14.953 44.9296 14.1842 42.7512 14.1842 39.1632C14.1842 36.9115 14.532 34.6507 15.2185 32.3166C15.9049 29.9826 17.0033 27.6669 18.5136 25.3511C20.0696 23.0171 22.0558 20.7288 24.518 18.5595C27.026 16.3628 31.9137 13.4704 35.6665 11.8228C37.4971 11.0174 39.163 10.4407 40.655 10.0746C42.1927 9.63524 44.5542 8.97622 45.8814 8.79316C47.2543 8.53687 48.609 8.30804 49.9454 8.11582C51.2817 7.85954 52.6913 7.50257 54.1741 7.04491C56.1878 6.43165 57.8719 5.76348 59.2175 5.01292C60.3341 4.34474 61.2952 3.71318 62.1007 3.09992C62.3936 2.88025 62.7322 3.03585 62.778 3.43858C62.8879 4.3539 62.9519 5.18682 62.9702 5.93738C63.0435 8.8023 62.4851 11.1455 61.3135 12.9487C60.1877 14.6786 58.2472 15.8594 55.5104 16.5733L55.5196 16.5641Z"/>
</mask>
<path d="M24.5394 63.2655C24.6712 63.2142 24.7737 63.3094 24.781 63.4778C24.8909 67.7175 24.9421 69.841 25.052 74.0808C25.0739 74.9814 25.1838 75.5453 25.3668 75.7869C25.5719 75.9993 25.916 76.0359 26.392 75.8821C26.414 75.8821 26.4286 75.8674 26.4506 75.8601C26.641 75.7942 26.8533 75.948 26.824 76.2043C26.7069 77.1489 26.5311 77.8592 26.3114 78.3425C26.0625 78.899 25.5865 79.2724 24.8982 79.4921C24.0781 79.7484 23.4484 79.6898 23.009 79.3017C22.7161 79.0381 22.4745 78.6793 22.2914 78.218C22.2035 77.9837 21.8813 78.0569 21.7788 78.3351C21.7349 78.4596 21.6836 78.5841 21.6324 78.7159C21.464 79.1186 21.2516 79.4994 20.9953 79.8655C20.761 80.2243 20.4681 80.5465 20.1386 80.8394C19.8164 81.125 19.4429 81.3447 19.0036 81.5058C18.4837 81.6961 17.9711 81.7621 17.4659 81.7035C16.9606 81.6449 16.492 81.4252 16.06 81.0445C15.6426 80.6564 15.2984 80.0632 15.0202 79.2797C14.7566 78.4669 14.6101 77.3979 14.5735 76.0798C14.5515 75.1425 14.6028 74.1467 14.7346 73.0776C14.881 72.0012 15.1227 70.9614 15.4522 69.9582C15.7964 68.9477 16.2503 68.0397 16.8142 67.2342C17.3927 66.3995 18.1029 65.7917 18.945 65.4183C19.1427 65.3304 19.3478 65.2572 19.5821 65.2059C19.8091 65.1254 20.0287 65.1034 20.2484 65.14C20.4608 65.1547 20.6658 65.2425 20.8489 65.3963C20.966 65.4768 21.2662 65.2572 21.2589 65.0595C21.2589 64.957 21.2589 64.9057 21.2589 64.8032C21.2589 64.686 21.3248 64.5615 21.42 64.5249C22.6722 64.005 23.3019 63.7561 24.5687 63.2728L24.5394 63.2655ZM20.08 66.8828C19.6919 67.0439 19.3551 67.41 19.0768 67.9738C18.8132 68.5084 18.6009 69.1381 18.4398 69.8557C18.2933 70.544 18.1908 71.2909 18.1322 72.0964C18.0736 72.8799 18.0517 73.6048 18.0663 74.2931C18.0956 75.3915 18.1835 76.2263 18.3299 76.7974C18.4764 77.3466 18.6375 77.7347 18.8279 77.9544C19.0256 78.1521 19.2379 78.2399 19.4503 78.2253C19.6626 78.1887 19.8384 78.1447 19.9848 78.0862C20.1606 78.0203 20.3436 77.9031 20.5194 77.7347C20.7097 77.537 20.8782 77.2953 21.0173 77.0098C21.1711 76.7169 21.2955 76.3873 21.3834 76.0139C21.4713 75.6405 21.5079 75.2231 21.5006 74.7618C21.4273 71.9206 21.3907 70.5001 21.3175 67.6663C21.3175 67.6223 21.3102 67.5784 21.2882 67.5418C21.2589 67.4832 21.2223 67.41 21.1857 67.3294C21.1344 67.2049 21.0539 67.0951 20.9514 67.0072C20.8489 66.9194 20.7244 66.8681 20.5779 66.8462C20.4461 66.7949 20.2777 66.8095 20.0873 66.8901L20.08 66.8828Z" fill="#1C1C1C"/>
<path d="M11.6958 83.4462C11.6958 83.578 11.7763 83.6585 11.8788 83.6439C12.4793 83.5634 13.0944 83.5926 13.7241 83.7171C14.4344 83.8489 15.1666 83.9954 15.9135 84.1638C16.6604 84.3249 17.4219 84.4421 18.1908 84.4933C18.9743 84.5665 19.7578 84.4713 20.534 84.2077C20.8415 84.1052 21.1564 83.9588 21.4786 83.7611C21.7349 83.6293 21.9912 83.4535 22.2475 83.2412C22.35 83.1533 22.4745 83.1972 22.4818 83.3437C22.4818 83.4608 22.4818 83.5121 22.4891 83.6293C22.5037 84.1125 22.4598 84.6324 22.3573 85.1743C22.2548 85.7381 22.101 86.2654 21.8813 86.756C21.6836 87.2466 21.5079 87.5688 21.0759 88.0594C20.6438 88.55 19.1281 89.1504 18.2787 88.8795C17.4293 88.6086 17.173 88.4694 16.5799 88.1619C15.9867 87.8543 15.379 87.5175 14.7566 87.1367C14.1341 86.7779 13.4971 86.485 12.8527 86.2434C12.201 86.0017 11.542 85.8626 10.8756 85.8114C10.202 85.7674 9.53563 85.8992 8.86196 86.2068C8.75212 86.258 8.69354 86.2873 8.5837 86.3386C8.44458 86.4045 8.32009 86.3386 8.32009 86.1628C8.12239 78.3644 8.01987 74.4688 7.82216 66.6704C7.82216 66.4654 7.64642 66.4361 7.5073 66.6264C6.92882 67.4246 6.47483 68.296 6.15264 69.2406C5.79384 70.3097 5.62542 71.4373 5.65471 72.6236C5.66935 73.1435 5.70597 73.5755 5.77919 73.9196C5.86706 74.2418 5.94761 74.4981 6.02816 74.7031C6.12335 74.9009 6.22586 75.0546 6.32106 75.1791C6.40892 75.267 6.45286 75.3182 6.54073 75.4061C5.6181 75.9333 4.88585 76.0944 4.34398 75.8894C3.80212 75.6844 3.51654 75.018 3.48725 73.8904C3.46529 72.9311 3.6337 71.906 3.9925 70.8296C4.35131 69.7458 4.83459 68.6914 5.44236 67.6736C6.06477 66.6264 6.78237 65.6599 7.58785 64.8031C8.40796 63.9098 9.26469 63.1922 10.1507 62.665C10.3191 62.5625 10.4875 62.4746 10.6413 62.4014C10.7438 62.3428 10.839 62.2915 10.9342 62.2403C11.0514 62.1817 11.1393 62.2549 11.1393 62.4014C11.3223 69.4163 11.5127 76.4239 11.6958 83.4389V83.4462Z" fill="#1C1C1C"/>
<path d="M203.306 59.6936C203.123 59.5563 203.031 59.3 203.068 59.0895C203.104 58.8698 203.132 58.6593 203.132 58.4671C203.132 58.4396 203.132 58.4122 203.132 58.3847C203.177 58.1009 203.196 57.7165 203.205 57.2406C203.223 55.1903 202.967 53.6434 202.427 52.5816C201.933 51.5382 201.283 50.8883 200.459 50.6595C199.544 50.4032 198.738 50.7327 198.033 51.648C197.374 52.5267 196.798 53.7624 196.303 55.355C195.855 56.9019 195.498 58.6959 195.233 60.7279C195.013 62.769 194.876 64.7827 194.839 66.7598C194.793 69.2677 194.894 71.3363 195.15 72.9564C195.452 74.5308 195.882 75.7756 196.432 76.7092C197.036 77.6428 197.777 78.311 198.674 78.7229C199.571 79.0799 200.615 79.2812 201.795 79.3453C202.125 79.3636 202.528 79.3545 203.004 79.3362C203.525 79.2629 204.074 79.1165 204.642 78.906C205.255 78.6405 205.896 78.2652 206.564 77.7801C206.93 77.4872 207.306 77.1303 207.681 76.7184C207.983 76.3889 208.56 76.6634 208.523 77.1211C208.431 78.1005 208.267 78.9975 208.047 79.8304C207.763 81.0661 207.241 82.1279 206.473 83.034C205.704 83.9402 204.651 84.6449 203.315 85.1301C202.024 85.6243 200.367 85.8806 198.363 85.8806C196.358 85.8806 194.491 85.5694 192.789 84.9104C191.086 84.1965 189.603 83.0889 188.349 81.5512C187.141 79.9677 186.217 77.9083 185.567 75.382C184.963 72.8558 184.706 69.8169 184.789 66.293C184.844 63.9132 185.1 61.3503 185.549 58.6318C186.043 55.8676 186.857 53.4054 187.983 51.2819C189.109 49.1584 190.601 47.5657 192.432 46.5131C194.308 45.4788 196.688 45.4147 199.562 46.2934C201.338 46.8335 202.775 47.584 203.901 48.4902C205.072 49.4147 205.987 50.394 206.665 51.4283C207.342 52.4169 207.809 53.4237 208.084 54.4672C208.349 55.4557 208.486 56.3802 208.486 57.2406C208.486 58.4854 208.239 59.4465 207.736 60.1512C207.278 60.8652 206.637 61.1398 205.814 60.9567C205.447 60.8743 205.008 60.7096 204.505 60.4533C204.102 60.2519 203.708 59.9956 203.306 59.6936Z" fill="#1C1C1C"/>
<path d="M176.698 40.7924C176.954 40.8473 177.164 41.1585 177.155 41.4789C176.89 51.3551 176.633 61.2313 176.368 71.1075C176.304 73.3592 176.505 74.9701 176.954 75.9403C177.402 76.8465 178.254 77.3225 179.498 77.3774C181.311 77.4598 182.638 76.7641 183.48 75.3271C184.304 74.009 184.844 72.453 185.109 70.6498C185.155 70.3661 185.356 70.1739 185.594 70.1922C186.409 70.2654 186.812 70.302 187.617 70.3753C187.901 70.4027 188.111 70.7139 188.066 71.0434C187.608 74.1189 186.903 76.5994 185.97 78.5215C184.972 80.5077 183.855 82.0729 182.638 83.1988C181.421 84.2697 180.176 84.9928 178.931 85.3406C177.677 85.6884 176.551 85.8623 175.544 85.8623C172.963 85.8623 171.023 85.1118 169.723 83.574C168.789 82.4299 168.094 80.9288 167.627 79.0799C167.48 78.5032 166.776 78.4208 166.556 78.9609C166.098 80.0592 165.586 81.002 165.036 81.7617C164.194 82.8692 163.334 83.7296 162.455 84.3521C161.577 84.9745 160.707 85.3863 159.838 85.5694C158.968 85.7616 158.181 85.8531 157.467 85.8531C154.071 85.8531 151.645 84.4985 150.172 81.7526C148.744 79.0066 148.076 75.2813 148.176 70.6407C148.414 59.3732 148.652 48.1057 148.881 36.8383C148.881 36.4813 149.11 36.2158 149.376 36.2433C153.192 36.701 155.096 36.9573 158.895 37.5339C159.16 37.5705 159.371 37.8909 159.362 38.2387C159.096 48.838 158.84 59.4281 158.574 70.0274C158.51 72.4439 158.712 74.1738 159.169 75.1989C159.673 76.1692 160.405 76.6634 161.357 76.6909C162.648 76.7275 163.746 75.9861 164.652 74.4575C165.558 72.9381 166.034 71.016 166.098 68.6636C166.355 58.9339 166.611 49.195 166.867 39.4652C166.867 39.1265 167.096 38.8886 167.361 38.9343C171.114 39.6117 172.991 39.9778 176.698 40.7741V40.7924Z" fill="#1C1C1C"/>
<path d="M118.182 16.2529C118.182 15.9143 118.365 15.6305 118.612 15.5939C122.53 14.9715 124.497 14.6969 128.415 14.2393C128.717 14.2027 128.973 14.5413 128.973 14.944C128.882 23.2551 128.845 27.4106 128.754 35.7216C128.754 36.2708 129.193 36.6095 129.532 36.3349C130.52 35.5202 131.344 34.9985 132.012 34.7788C132.854 34.431 133.696 34.2846 134.529 34.3486C136.296 34.4768 137.888 35.145 139.289 36.3349C140.744 37.4607 141.962 39.0716 142.95 41.1494C143.984 43.2363 144.772 45.7809 145.293 48.7922C145.824 51.7395 146.044 55.0804 145.971 58.8332C145.916 61.7256 145.632 64.7736 145.138 67.9863C144.643 71.135 143.765 74.0457 142.52 76.7367C141.321 79.3636 139.673 81.542 137.586 83.272C135.545 85.0019 132.928 85.8806 129.724 85.8806C125.66 85.8806 122.658 84.4527 120.708 81.5878C118.804 78.7229 117.861 74.8603 117.88 70.0183C117.98 52.0965 118.072 34.1839 118.173 16.2621L118.182 16.2529ZM138.474 59.3275C138.566 53.918 138.072 49.6435 136.991 46.4948C135.921 43.3461 134.419 41.6986 132.506 41.5887C131.921 41.5521 131.234 41.6894 130.438 41.9823C129.733 42.1929 129.184 42.5407 128.79 43.0349C128.699 43.1448 128.662 43.3004 128.653 43.4743C128.561 52.3253 128.47 61.1764 128.369 70.0275C128.351 72.1967 128.671 73.7528 129.33 74.7138C129.999 75.6017 130.85 76.0502 131.911 76.0685C133.165 76.0868 134.2 75.5925 135.033 74.604C135.866 73.5422 136.516 72.215 136.973 70.6224C137.477 68.9657 137.852 67.1717 138.072 65.2404C138.3 63.245 138.429 61.2771 138.456 59.3366L138.474 59.3275Z" fill="#1C1C1C"/>
<path d="M109.138 34.0191C109.413 34.0191 109.633 34.3212 109.633 34.6964C109.642 46.0829 109.66 57.4694 109.669 68.8558C109.669 71.7208 109.944 73.6338 110.466 74.5948C111.042 75.4827 112.031 75.922 113.422 75.9312C114.813 75.9312 115.976 75.08 116.891 73.3775C117.779 71.8123 118.328 69.881 118.539 67.5652C118.566 67.2174 118.777 66.9428 119.033 66.9428C119.857 66.9428 120.269 66.952 121.083 66.9611C121.376 66.9611 121.596 67.3273 121.55 67.73C121.129 71.5285 120.461 74.604 119.546 76.9655C118.575 79.4185 117.486 81.3224 116.278 82.6862C115.079 83.9859 113.852 84.8371 112.608 85.249C111.363 85.6609 110.264 85.8623 109.312 85.8623C106.777 85.8623 104.837 85.0385 103.491 83.4093C102.466 82.0729 101.679 80.3613 101.12 78.2652C100.965 77.6703 100.333 77.5879 100.123 78.1462C99.8938 78.7503 99.6467 79.3453 99.3721 79.9402C98.8504 81.0295 98.2097 82.018 97.45 82.9058C96.736 83.7937 95.8848 84.5076 94.8871 85.0477C93.9352 85.5877 92.8185 85.8623 91.5279 85.8623C89.9993 85.8623 88.4891 85.4596 86.988 84.6541C85.496 83.8486 84.1047 82.558 82.8325 80.764C81.6059 78.9792 80.5808 76.636 79.757 73.7436C78.979 70.7871 78.5488 67.1625 78.4664 62.8789C78.4115 59.84 78.5946 56.6914 79.0156 53.4237C79.4916 50.1469 80.233 47.1081 81.2581 44.298C82.329 41.488 83.7386 39.1357 85.4777 37.2593C87.2626 35.3097 89.441 34.2388 92.0039 34.0832C92.5988 34.0466 93.2395 34.0832 93.926 34.1747C94.6125 34.2022 95.2807 34.4127 95.9306 34.788C96.5713 35.0992 97.1662 35.6118 97.7154 36.3348C98.0541 36.7376 98.9694 36.3898 98.9694 35.7673C98.9694 35.4287 98.9694 35.2639 98.9694 34.9253C98.9694 34.55 99.1799 34.2388 99.4545 34.2296C103.326 34.0832 105.258 34.0466 109.138 34.0191ZM99.0426 44.1333C99.0426 44.0784 99.0426 44.0235 99.0243 43.9685C98.9694 43.7122 98.8779 43.401 98.7406 43.0349C98.5941 42.5681 98.3653 42.1288 98.0632 41.7352C97.7612 41.2684 97.395 40.9114 96.9465 40.6551C96.498 40.3348 95.9855 40.1883 95.3905 40.2066C94.2098 40.2615 93.1846 41.0212 92.3242 42.4857C91.5096 43.877 90.8414 45.6344 90.3289 47.7488C89.862 49.7991 89.5325 52.069 89.322 54.5678C89.1115 57.0026 89.02 59.3274 89.0474 61.5425C89.0932 65.1122 89.3312 67.8948 89.7431 69.9084C90.1549 71.8489 90.6309 73.2951 91.1709 74.2287C91.7567 75.0982 92.37 75.6291 92.9924 75.8214C93.6148 75.9495 94.1457 76.0136 94.585 76.0044C95.1159 76.0044 95.6377 75.8214 96.1685 75.4827C96.7452 75.0708 97.2394 74.485 97.6696 73.7344C98.1456 72.9839 98.5209 72.0594 98.8046 70.9702C99.0884 69.8078 99.2165 68.4806 99.2074 66.9886C99.1341 57.8446 99.1067 53.2681 99.0334 44.115L99.0426 44.1333Z" fill="#1C1C1C"/>
<path d="M63.7391 37.5705C64.0045 37.5339 64.2242 37.781 64.2333 38.1288C64.2699 39.5567 64.2883 40.2615 64.3249 41.6894C64.3432 42.2844 64.9107 42.4857 65.2127 42.0189C66.009 40.7649 66.8786 39.6025 67.8122 38.5316C69.0936 37.003 70.5032 36.1335 72.0684 35.9321C72.9929 35.8131 73.8258 35.9779 74.5672 36.4172C75.3544 36.8474 76.0317 37.4698 76.5809 38.2661C77.185 39.0625 77.6426 39.9778 77.9538 41.0029C78.3108 41.964 78.503 42.9708 78.5213 44.0326C78.5488 45.488 78.2376 46.8701 77.5786 48.179C76.9653 49.4146 75.9127 50.092 74.4116 50.2201C73.2949 50.3116 72.5169 50.0553 72.0684 49.4421C71.6199 48.8288 71.2629 48.179 71.0066 47.4925C70.7503 46.7419 70.4666 46.0554 70.1554 45.433C69.8991 44.8106 69.4323 44.536 68.755 44.6184C68.0319 44.7008 67.3088 45.1767 66.604 46.028C65.9816 46.7694 65.3226 47.6847 64.6269 48.7648C64.5445 48.8929 64.4988 49.0485 64.5079 49.2133C64.8008 61.0299 65.0846 72.8466 65.3775 84.6541C65.3775 85.0019 65.1761 85.2857 64.9198 85.2857C61.167 85.2857 59.2907 85.2948 55.547 85.304C55.2816 85.304 55.0619 85.0294 55.0528 84.6907C54.6592 69.7345 54.2564 54.7875 53.8629 39.8313C53.8629 39.4927 54.0551 39.1815 54.3205 39.1357C58.0733 38.4492 59.9588 38.1289 63.7482 37.5522L63.7391 37.5705Z" fill="#1C1C1C"/>
<path d="M55.5196 16.5641C53.9819 16.9669 52.2611 17.2506 50.3481 17.4337C48.609 17.5527 46.037 17.9096 44.0599 18.0927C43.767 18.1202 43.5016 18.4863 43.5107 18.8616C44.0874 40.829 44.6732 62.7965 45.2498 84.7639C45.2498 85.0843 45.0484 85.3497 44.7922 85.3497C41.0119 85.3589 39.1264 85.368 35.3462 85.3772C35.0807 85.3772 34.861 85.1301 34.861 84.828C34.3759 63.4647 33.8817 42.1013 33.3965 20.738C33.3965 20.4359 33.1769 20.2711 32.9297 20.3718C32.1151 20.7105 31.7032 20.8844 30.8886 21.2322C28.8474 22.1018 27.1724 23.1635 25.8361 24.3626C24.4997 25.5067 23.4471 26.7882 22.6599 28.1794C21.8728 29.5249 21.3327 31.0077 21.0398 32.6187C20.7469 34.2296 20.6096 35.9413 20.628 37.7627C20.6463 39.4378 20.7469 40.7375 20.9392 41.6894C21.1771 42.623 21.4334 43.3736 21.708 43.9502C21.9826 44.472 22.2664 44.8655 22.541 45.1401C22.5593 45.1584 22.5776 45.1676 22.5959 45.1859C22.8705 45.4056 22.6782 45.9456 22.2938 46.0463C19.8774 46.6596 17.9552 46.5772 16.5182 45.8358C14.953 44.9296 14.1842 42.7512 14.1842 39.1632C14.1842 36.9115 14.532 34.6507 15.2185 32.3166C15.9049 29.9826 17.0033 27.6669 18.5136 25.3511C20.0696 23.0171 22.0558 20.7288 24.518 18.5595C27.026 16.3628 31.9137 13.4704 35.6665 11.8228C37.4971 11.0174 39.163 10.4407 40.655 10.0746C42.1927 9.63524 44.5542 8.97622 45.8814 8.79316C47.2543 8.53687 48.609 8.30804 49.9454 8.11582C51.2817 7.85954 52.6913 7.50257 54.1741 7.04491C56.1878 6.43165 57.8719 5.76348 59.2175 5.01292C60.3341 4.34474 61.2952 3.71318 62.1007 3.09992C62.3936 2.88025 62.7322 3.03585 62.778 3.43858C62.8879 4.3539 62.9519 5.18682 62.9702 5.93738C63.0435 8.8023 62.4851 11.1455 61.3135 12.9487C60.1877 14.6786 58.2472 15.8594 55.5104 16.5733L55.5196 16.5641Z" fill="#1C1C1C"/>
<path d="M24.5394 63.2655C24.6712 63.2142 24.7737 63.3094 24.781 63.4778C24.8909 67.7175 24.9421 69.841 25.052 74.0808C25.0739 74.9814 25.1838 75.5453 25.3668 75.7869C25.5719 75.9993 25.916 76.0359 26.392 75.8821C26.414 75.8821 26.4286 75.8674 26.4506 75.8601C26.641 75.7942 26.8533 75.948 26.824 76.2043C26.7069 77.1489 26.5311 77.8592 26.3114 78.3425C26.0625 78.899 25.5865 79.2724 24.8982 79.4921C24.0781 79.7484 23.4484 79.6898 23.009 79.3017C22.7161 79.0381 22.4745 78.6793 22.2914 78.218C22.2035 77.9837 21.8813 78.0569 21.7788 78.3351C21.7349 78.4596 21.6836 78.5841 21.6324 78.7159C21.464 79.1186 21.2516 79.4994 20.9953 79.8655C20.761 80.2243 20.4681 80.5465 20.1386 80.8394C19.8164 81.125 19.4429 81.3447 19.0036 81.5058C18.4837 81.6961 17.9711 81.7621 17.4659 81.7035C16.9606 81.6449 16.492 81.4252 16.06 81.0445C15.6426 80.6564 15.2984 80.0632 15.0202 79.2797C14.7566 78.4669 14.6101 77.3979 14.5735 76.0798C14.5515 75.1425 14.6028 74.1467 14.7346 73.0776C14.881 72.0012 15.1227 70.9614 15.4522 69.9582C15.7964 68.9477 16.2503 68.0397 16.8142 67.2342C17.3927 66.3995 18.1029 65.7917 18.945 65.4183C19.1427 65.3304 19.3478 65.2572 19.5821 65.2059C19.8091 65.1254 20.0287 65.1034 20.2484 65.14C20.4608 65.1547 20.6658 65.2425 20.8489 65.3963C20.966 65.4768 21.2662 65.2572 21.2589 65.0595C21.2589 64.957 21.2589 64.9057 21.2589 64.8032C21.2589 64.686 21.3248 64.5615 21.42 64.5249C22.6722 64.005 23.3019 63.7561 24.5687 63.2728L24.5394 63.2655ZM20.08 66.8828C19.6919 67.0439 19.3551 67.41 19.0768 67.9738C18.8132 68.5084 18.6009 69.1381 18.4398 69.8557C18.2933 70.544 18.1908 71.2909 18.1322 72.0964C18.0736 72.8799 18.0517 73.6048 18.0663 74.2931C18.0956 75.3915 18.1835 76.2263 18.3299 76.7974C18.4764 77.3466 18.6375 77.7347 18.8279 77.9544C19.0256 78.1521 19.2379 78.2399 19.4503 78.2253C19.6626 78.1887 19.8384 78.1447 19.9848 78.0862C20.1606 78.0203 20.3436 77.9031 20.5194 77.7347C20.7097 77.537 20.8782 77.2953 21.0173 77.0098C21.1711 76.7169 21.2955 76.3873 21.3834 76.0139C21.4713 75.6405 21.5079 75.2231 21.5006 74.7618C21.4273 71.9206 21.3907 70.5001 21.3175 67.6663C21.3175 67.6223 21.3102 67.5784 21.2882 67.5418C21.2589 67.4832 21.2223 67.41 21.1857 67.3294C21.1344 67.2049 21.0539 67.0951 20.9514 67.0072C20.8489 66.9194 20.7244 66.8681 20.5779 66.8462C20.4461 66.7949 20.2777 66.8095 20.0873 66.8901L20.08 66.8828Z" stroke="white" stroke-width="5.54734" stroke-linejoin="round" mask="url(#path-1-outside-1_647_7098)"/>
<path d="M11.6958 83.4462C11.6958 83.578 11.7763 83.6585 11.8788 83.6439C12.4793 83.5634 13.0944 83.5926 13.7241 83.7171C14.4344 83.8489 15.1666 83.9954 15.9135 84.1638C16.6604 84.3249 17.4219 84.4421 18.1908 84.4933C18.9743 84.5665 19.7578 84.4713 20.534 84.2077C20.8415 84.1052 21.1564 83.9588 21.4786 83.7611C21.7349 83.6293 21.9912 83.4535 22.2475 83.2412C22.35 83.1533 22.4745 83.1972 22.4818 83.3437C22.4818 83.4608 22.4818 83.5121 22.4891 83.6293C22.5037 84.1125 22.4598 84.6324 22.3573 85.1743C22.2548 85.7381 22.101 86.2654 21.8813 86.756C21.6836 87.2466 21.5079 87.5688 21.0759 88.0594C20.6438 88.55 19.1281 89.1504 18.2787 88.8795C17.4293 88.6086 17.173 88.4694 16.5799 88.1619C15.9867 87.8543 15.379 87.5175 14.7566 87.1367C14.1341 86.7779 13.4971 86.485 12.8527 86.2434C12.201 86.0017 11.542 85.8626 10.8756 85.8114C10.202 85.7674 9.53563 85.8992 8.86196 86.2068C8.75212 86.258 8.69354 86.2873 8.5837 86.3386C8.44458 86.4045 8.32009 86.3386 8.32009 86.1628C8.12239 78.3644 8.01987 74.4688 7.82216 66.6704C7.82216 66.4654 7.64642 66.4361 7.5073 66.6264C6.92882 67.4246 6.47483 68.296 6.15264 69.2406C5.79384 70.3097 5.62542 71.4373 5.65471 72.6236C5.66935 73.1435 5.70597 73.5755 5.77919 73.9196C5.86706 74.2418 5.94761 74.4981 6.02816 74.7031C6.12335 74.9009 6.22586 75.0546 6.32106 75.1791C6.40892 75.267 6.45286 75.3182 6.54073 75.4061C5.6181 75.9333 4.88585 76.0944 4.34398 75.8894C3.80212 75.6844 3.51654 75.018 3.48725 73.8904C3.46529 72.9311 3.6337 71.906 3.9925 70.8296C4.35131 69.7458 4.83459 68.6914 5.44236 67.6736C6.06477 66.6264 6.78237 65.6599 7.58785 64.8031C8.40796 63.9098 9.26469 63.1922 10.1507 62.665C10.3191 62.5625 10.4875 62.4746 10.6413 62.4014C10.7438 62.3428 10.839 62.2915 10.9342 62.2403C11.0514 62.1817 11.1393 62.2549 11.1393 62.4014C11.3223 69.4163 11.5127 76.4239 11.6958 83.4389V83.4462Z" stroke="white" stroke-width="5.54734" stroke-linejoin="round" mask="url(#path-1-outside-1_647_7098)"/>
<path d="M203.306 59.6936C203.123 59.5563 203.031 59.3 203.068 59.0895C203.104 58.8698 203.132 58.6593 203.132 58.4671C203.132 58.4396 203.132 58.4122 203.132 58.3847C203.177 58.1009 203.196 57.7165 203.205 57.2406C203.223 55.1903 202.967 53.6434 202.427 52.5816C201.933 51.5382 201.283 50.8883 200.459 50.6595C199.544 50.4032 198.738 50.7327 198.033 51.648C197.374 52.5267 196.798 53.7624 196.303 55.355C195.855 56.9019 195.498 58.6959 195.233 60.7279C195.013 62.769 194.876 64.7827 194.839 66.7598C194.793 69.2677 194.894 71.3363 195.15 72.9564C195.452 74.5308 195.882 75.7756 196.432 76.7092C197.036 77.6428 197.777 78.311 198.674 78.7229C199.571 79.0799 200.615 79.2812 201.795 79.3453C202.125 79.3636 202.528 79.3545 203.004 79.3362C203.525 79.2629 204.074 79.1165 204.642 78.906C205.255 78.6405 205.896 78.2652 206.564 77.7801C206.93 77.4872 207.306 77.1303 207.681 76.7184C207.983 76.3889 208.56 76.6634 208.523 77.1211C208.431 78.1005 208.267 78.9975 208.047 79.8304C207.763 81.0661 207.241 82.1279 206.473 83.034C205.704 83.9402 204.651 84.6449 203.315 85.1301C202.024 85.6243 200.367 85.8806 198.363 85.8806C196.358 85.8806 194.491 85.5694 192.789 84.9104C191.086 84.1965 189.603 83.0889 188.349 81.5512C187.141 79.9677 186.217 77.9083 185.567 75.382C184.963 72.8558 184.706 69.8169 184.789 66.293C184.844 63.9132 185.1 61.3503 185.549 58.6318C186.043 55.8676 186.857 53.4054 187.983 51.2819C189.109 49.1584 190.601 47.5657 192.432 46.5131C194.308 45.4788 196.688 45.4147 199.562 46.2934C201.338 46.8335 202.775 47.584 203.901 48.4902C205.072 49.4147 205.987 50.394 206.665 51.4283C207.342 52.4169 207.809 53.4237 208.084 54.4672C208.349 55.4557 208.486 56.3802 208.486 57.2406C208.486 58.4854 208.239 59.4465 207.736 60.1512C207.278 60.8652 206.637 61.1398 205.814 60.9567C205.447 60.8743 205.008 60.7096 204.505 60.4533C204.102 60.2519 203.708 59.9956 203.306 59.6936Z" stroke="white" stroke-width="5.54734" stroke-linejoin="round" mask="url(#path-1-outside-1_647_7098)"/>
<path d="M176.698 40.7924C176.954 40.8473 177.164 41.1585 177.155 41.4789C176.89 51.3551 176.633 61.2313 176.368 71.1075C176.304 73.3592 176.505 74.9701 176.954 75.9403C177.402 76.8465 178.254 77.3225 179.498 77.3774C181.311 77.4598 182.638 76.7641 183.48 75.3271C184.304 74.009 184.844 72.453 185.109 70.6498C185.155 70.3661 185.356 70.1739 185.594 70.1922C186.409 70.2654 186.812 70.302 187.617 70.3753C187.901 70.4027 188.111 70.7139 188.066 71.0434C187.608 74.1189 186.903 76.5994 185.97 78.5215C184.972 80.5077 183.855 82.0729 182.638 83.1988C181.421 84.2697 180.176 84.9928 178.931 85.3406C177.677 85.6884 176.551 85.8623 175.544 85.8623C172.963 85.8623 171.023 85.1118 169.723 83.574C168.789 82.4299 168.094 80.9288 167.627 79.0799C167.48 78.5032 166.776 78.4208 166.556 78.9609C166.098 80.0592 165.586 81.002 165.036 81.7617C164.194 82.8692 163.334 83.7296 162.455 84.3521C161.577 84.9745 160.707 85.3863 159.838 85.5694C158.968 85.7616 158.181 85.8531 157.467 85.8531C154.071 85.8531 151.645 84.4985 150.172 81.7526C148.744 79.0066 148.076 75.2813 148.176 70.6407C148.414 59.3732 148.652 48.1057 148.881 36.8383C148.881 36.4813 149.11 36.2158 149.376 36.2433C153.192 36.701 155.096 36.9573 158.895 37.5339C159.16 37.5705 159.371 37.8909 159.362 38.2387C159.096 48.838 158.84 59.4281 158.574 70.0274C158.51 72.4439 158.712 74.1738 159.169 75.1989C159.673 76.1692 160.405 76.6634 161.357 76.6909C162.648 76.7275 163.746 75.9861 164.652 74.4575C165.558 72.9381 166.034 71.016 166.098 68.6636C166.355 58.9339 166.611 49.195 166.867 39.4652C166.867 39.1265 167.096 38.8886 167.361 38.9343C171.114 39.6117 172.991 39.9778 176.698 40.7741V40.7924Z" stroke="white" stroke-width="5.54734" stroke-linejoin="round" mask="url(#path-1-outside-1_647_7098)"/>
<path d="M118.182 16.2529C118.182 15.9143 118.365 15.6305 118.612 15.5939C122.53 14.9715 124.497 14.6969 128.415 14.2393C128.717 14.2027 128.973 14.5413 128.973 14.944C128.882 23.2551 128.845 27.4106 128.754 35.7216C128.754 36.2708 129.193 36.6095 129.532 36.3349C130.52 35.5202 131.344 34.9985 132.012 34.7788C132.854 34.431 133.696 34.2846 134.529 34.3486C136.296 34.4768 137.888 35.145 139.289 36.3349C140.744 37.4607 141.962 39.0716 142.95 41.1494C143.984 43.2363 144.772 45.7809 145.293 48.7922C145.824 51.7395 146.044 55.0804 145.971 58.8332C145.916 61.7256 145.632 64.7736 145.138 67.9863C144.643 71.135 143.765 74.0457 142.52 76.7367C141.321 79.3636 139.673 81.542 137.586 83.272C135.545 85.0019 132.928 85.8806 129.724 85.8806C125.66 85.8806 122.658 84.4527 120.708 81.5878C118.804 78.7229 117.861 74.8603 117.88 70.0183C117.98 52.0965 118.072 34.1839 118.173 16.2621L118.182 16.2529ZM138.474 59.3275C138.566 53.918 138.072 49.6435 136.991 46.4948C135.921 43.3461 134.419 41.6986 132.506 41.5887C131.921 41.5521 131.234 41.6894 130.438 41.9823C129.733 42.1929 129.184 42.5407 128.79 43.0349C128.699 43.1448 128.662 43.3004 128.653 43.4743C128.561 52.3253 128.47 61.1764 128.369 70.0275C128.351 72.1967 128.671 73.7528 129.33 74.7138C129.999 75.6017 130.85 76.0502 131.911 76.0685C133.165 76.0868 134.2 75.5925 135.033 74.604C135.866 73.5422 136.516 72.215 136.973 70.6224C137.477 68.9657 137.852 67.1717 138.072 65.2404C138.3 63.245 138.429 61.2771 138.456 59.3366L138.474 59.3275Z" stroke="white" stroke-width="5.54734" stroke-linejoin="round" mask="url(#path-1-outside-1_647_7098)"/>
<path d="M109.138 34.0191C109.413 34.0191 109.633 34.3212 109.633 34.6964C109.642 46.0829 109.66 57.4694 109.669 68.8558C109.669 71.7208 109.944 73.6338 110.466 74.5948C111.042 75.4827 112.031 75.922 113.422 75.9312C114.813 75.9312 115.976 75.08 116.891 73.3775C117.779 71.8123 118.328 69.881 118.539 67.5652C118.566 67.2174 118.777 66.9428 119.033 66.9428C119.857 66.9428 120.269 66.952 121.083 66.9611C121.376 66.9611 121.596 67.3273 121.55 67.73C121.129 71.5285 120.461 74.604 119.546 76.9655C118.575 79.4185 117.486 81.3224 116.278 82.6862C115.079 83.9859 113.852 84.8371 112.608 85.249C111.363 85.6609 110.264 85.8623 109.312 85.8623C106.777 85.8623 104.837 85.0385 103.491 83.4093C102.466 82.0729 101.679 80.3613 101.12 78.2652C100.965 77.6703 100.333 77.5879 100.123 78.1462C99.8938 78.7503 99.6467 79.3453 99.3721 79.9402C98.8504 81.0295 98.2097 82.018 97.45 82.9058C96.736 83.7937 95.8848 84.5076 94.8871 85.0477C93.9352 85.5877 92.8185 85.8623 91.5279 85.8623C89.9993 85.8623 88.4891 85.4596 86.988 84.6541C85.496 83.8486 84.1047 82.558 82.8325 80.764C81.6059 78.9792 80.5808 76.636 79.757 73.7436C78.979 70.7871 78.5488 67.1625 78.4664 62.8789C78.4115 59.84 78.5946 56.6914 79.0156 53.4237C79.4916 50.1469 80.233 47.1081 81.2581 44.298C82.329 41.488 83.7386 39.1357 85.4777 37.2593C87.2626 35.3097 89.441 34.2388 92.0039 34.0832C92.5988 34.0466 93.2395 34.0832 93.926 34.1747C94.6125 34.2022 95.2807 34.4127 95.9306 34.788C96.5713 35.0992 97.1662 35.6118 97.7154 36.3348C98.0541 36.7376 98.9694 36.3898 98.9694 35.7673C98.9694 35.4287 98.9694 35.2639 98.9694 34.9253C98.9694 34.55 99.1799 34.2388 99.4545 34.2296C103.326 34.0832 105.258 34.0466 109.138 34.0191ZM99.0426 44.1333C99.0426 44.0784 99.0426 44.0235 99.0243 43.9685C98.9694 43.7122 98.8779 43.401 98.7406 43.0349C98.5941 42.5681 98.3653 42.1288 98.0632 41.7352C97.7612 41.2684 97.395 40.9114 96.9465 40.6551C96.498 40.3348 95.9855 40.1883 95.3905 40.2066C94.2098 40.2615 93.1846 41.0212 92.3242 42.4857C91.5096 43.877 90.8414 45.6344 90.3289 47.7488C89.862 49.7991 89.5325 52.069 89.322 54.5678C89.1115 57.0026 89.02 59.3274 89.0474 61.5425C89.0932 65.1122 89.3312 67.8948 89.7431 69.9084C90.1549 71.8489 90.6309 73.2951 91.1709 74.2287C91.7567 75.0982 92.37 75.6291 92.9924 75.8214C93.6148 75.9495 94.1457 76.0136 94.585 76.0044C95.1159 76.0044 95.6377 75.8214 96.1685 75.4827C96.7452 75.0708 97.2394 74.485 97.6696 73.7344C98.1456 72.9839 98.5209 72.0594 98.8046 70.9702C99.0884 69.8078 99.2165 68.4806 99.2074 66.9886C99.1341 57.8446 99.1067 53.2681 99.0334 44.115L99.0426 44.1333Z" stroke="white" stroke-width="5.54734" stroke-linejoin="round" mask="url(#path-1-outside-1_647_7098)"/>
<path d="M63.7391 37.5705C64.0045 37.5339 64.2242 37.781 64.2333 38.1288C64.2699 39.5567 64.2883 40.2615 64.3249 41.6894C64.3432 42.2844 64.9107 42.4857 65.2127 42.0189C66.009 40.7649 66.8786 39.6025 67.8122 38.5316C69.0936 37.003 70.5032 36.1335 72.0684 35.9321C72.9929 35.8131 73.8258 35.9779 74.5672 36.4172C75.3544 36.8474 76.0317 37.4698 76.5809 38.2661C77.185 39.0625 77.6426 39.9778 77.9538 41.0029C78.3108 41.964 78.503 42.9708 78.5213 44.0326C78.5488 45.488 78.2376 46.8701 77.5786 48.179C76.9653 49.4146 75.9127 50.092 74.4116 50.2201C73.2949 50.3116 72.5169 50.0553 72.0684 49.4421C71.6199 48.8288 71.2629 48.179 71.0066 47.4925C70.7503 46.7419 70.4666 46.0554 70.1554 45.433C69.8991 44.8106 69.4323 44.536 68.755 44.6184C68.0319 44.7008 67.3088 45.1767 66.604 46.028C65.9816 46.7694 65.3226 47.6847 64.6269 48.7648C64.5445 48.8929 64.4988 49.0485 64.5079 49.2133C64.8008 61.0299 65.0846 72.8466 65.3775 84.6541C65.3775 85.0019 65.1761 85.2857 64.9198 85.2857C61.167 85.2857 59.2907 85.2948 55.547 85.304C55.2816 85.304 55.0619 85.0294 55.0528 84.6907C54.6592 69.7345 54.2564 54.7875 53.8629 39.8313C53.8629 39.4927 54.0551 39.1815 54.3205 39.1357C58.0733 38.4492 59.9588 38.1289 63.7482 37.5522L63.7391 37.5705Z" stroke="white" stroke-width="5.54734" stroke-linejoin="round" mask="url(#path-1-outside-1_647_7098)"/>
<path d="M55.5196 16.5641C53.9819 16.9669 52.2611 17.2506 50.3481 17.4337C48.609 17.5527 46.037 17.9096 44.0599 18.0927C43.767 18.1202 43.5016 18.4863 43.5107 18.8616C44.0874 40.829 44.6732 62.7965 45.2498 84.7639C45.2498 85.0843 45.0484 85.3497 44.7922 85.3497C41.0119 85.3589 39.1264 85.368 35.3462 85.3772C35.0807 85.3772 34.861 85.1301 34.861 84.828C34.3759 63.4647 33.8817 42.1013 33.3965 20.738C33.3965 20.4359 33.1769 20.2711 32.9297 20.3718C32.1151 20.7105 31.7032 20.8844 30.8886 21.2322C28.8474 22.1018 27.1724 23.1635 25.8361 24.3626C24.4997 25.5067 23.4471 26.7882 22.6599 28.1794C21.8728 29.5249 21.3327 31.0077 21.0398 32.6187C20.7469 34.2296 20.6096 35.9413 20.628 37.7627C20.6463 39.4378 20.7469 40.7375 20.9392 41.6894C21.1771 42.623 21.4334 43.3736 21.708 43.9502C21.9826 44.472 22.2664 44.8655 22.541 45.1401C22.5593 45.1584 22.5776 45.1676 22.5959 45.1859C22.8705 45.4056 22.6782 45.9456 22.2938 46.0463C19.8774 46.6596 17.9552 46.5772 16.5182 45.8358C14.953 44.9296 14.1842 42.7512 14.1842 39.1632C14.1842 36.9115 14.532 34.6507 15.2185 32.3166C15.9049 29.9826 17.0033 27.6669 18.5136 25.3511C20.0696 23.0171 22.0558 20.7288 24.518 18.5595C27.026 16.3628 31.9137 13.4704 35.6665 11.8228C37.4971 11.0174 39.163 10.4407 40.655 10.0746C42.1927 9.63524 44.5542 8.97622 45.8814 8.79316C47.2543 8.53687 48.609 8.30804 49.9454 8.11582C51.2817 7.85954 52.6913 7.50257 54.1741 7.04491C56.1878 6.43165 57.8719 5.76348 59.2175 5.01292C60.3341 4.34474 61.2952 3.71318 62.1007 3.09992C62.3936 2.88025 62.7322 3.03585 62.778 3.43858C62.8879 4.3539 62.9519 5.18682 62.9702 5.93738C63.0435 8.8023 62.4851 11.1455 61.3135 12.9487C60.1877 14.6786 58.2472 15.8594 55.5104 16.5733L55.5196 16.5641Z" stroke="white" stroke-width="5.54734" stroke-linejoin="round" mask="url(#path-1-outside-1_647_7098)"/>
</g>
<defs>
<filter id="filter0_d_647_7098" x="0.71167" y="0.224609" width="210.587" height="95.3096" filterUnits="userSpaceOnUse" color-interpolation-filters="sRGB">
<feFlood flood-opacity="0" result="BackgroundImageFix"/>
<feColorMatrix in="SourceAlpha" type="matrix" values="0 0 0 0 0 0 0 0 0 0 0 0 0 0 0 0 0 0 127 0" result="hardAlpha"/>
<feOffset dy="3.81379"/>
<feComposite in2="hardAlpha" operator="out"/>
<feColorMatrix type="matrix" values="0 0 0 0 0 0 0 0 0 0 0 0 0 0 0 0 0 0 0.15 0"/>
<feBlend mode="normal" in2="BackgroundImageFix" result="effect1_dropShadow_647_7098"/>
<feBlend mode="normal" in="SourceGraphic" in2="effect1_dropShadow_647_7098" result="shape"/>
</filter>
</defs>
</svg>
